# xmcd CD database file generated by Grip 3.2.0
#
# Track frame offsets:
#       183
#       14668
#       31710
#       46835
#       59428
#       68500
#       85808
#       100008
#       116288
#       137765
#       160468
#       182238
#
# Disc length: 2636 seconds
#
# Revision: 0
# Processed by: cddbd v1.5.1PL2 Copyright (c) Steve Scherf et al.
# Submitted via: Grip 3.2.0  GR/17.08.2006
#
DISCID=950a4a0c
DTITLE=Matt Dawson - Soho
DYEAR=1992
DGENRE=misc
TTITLE0=Mimi
TTITLE1=Something carries on
TTITLE2=Old Soho
TTITLE3=Stone cold broke
TTITLE4=Success
TTITLE5=Son of a fool
TTITLE6=Bar to bar
TTITLE7=Soho and halcyon days
TTITLE8=Spencer the rover
TTITLE9=Blue soul
TTITLE10=Berwick street
TTITLE11=Old Soho (Instrumental reprise)
EXTD=
EXTT0=
EXTT1=
EXTT2=
EXTT3=
EXTT4=
EXTT5=
EXTT6=
EXTT7=
EXTT8=
EXTT9=
EXTT10=
EXTT11=
PLAYORDER=
